<svg width="480" height="480" viewBox="0 0 480 480" fill="none" xmlns="http://www.w3.org/2000/svg">
<path d="M307.07 332.929L404.141 235.858C407.891 232.107 409.998 227.02 409.998 221.716V150L461.714 201.716C477.335 217.337 477.335 242.663 461.714 258.284L393.908 326.091C386.226 333.773 386.226 346.227 393.908 353.909C423.419 383.421 439.998 423.447 439.998 465.182V480L307.07 347.071C303.164 343.166 303.164 336.834 307.07 332.929Z" fill="#101010"/>
<path d="M171.717 171.717L0 0H13.7258C56.1605 0 96.8571 16.8571 126.863 46.8629L185.858 105.858C193.668 113.668 206.332 113.668 214.142 105.858L273.137 46.8629C303.143 16.8571 343.84 0 386.274 0H400L228.287 171.713V194.116C228.287 204.318 224.389 214.134 217.391 221.557L207.277 232.283C203.33 236.47 196.673 236.47 192.726 232.283L182.613 221.558C175.614 214.134 171.716 204.318 171.716 194.115L171.717 171.717Z" fill="#101010"/>
<path d="M192.929 332.929L0 140H13.7258C56.1605 140 96.8571 156.857 126.863 186.863L185.858 245.858C193.668 253.668 206.332 253.668 214.142 245.858L273.137 186.863C303.143 156.857 343.84 140 386.274 140H400L207.071 332.929C203.166 336.834 196.834 336.834 192.929 332.929Z" fill="#101010"/>
<path d="M171.716 435.148C171.716 445.758 175.931 455.933 183.434 463.435L192.931 472.931C196.836 476.836 203.167 476.836 207.072 472.931L216.57 463.435C224.072 455.933 228.287 445.758 228.287 435.149V331.719L214.145 345.86C206.334 353.67 193.672 353.67 185.862 345.86L171.719 331.719L171.716 435.148Z" fill="#101010"/>
</svg>
